<svg width="1200" height="900" viewBox="0 0 1200 900" fill="none" xmlns="http://www.w3.org/2000/svg">
  <rect width="1200" height="900" rx="48" fill="url(#bg)"/>
  <circle cx="214" cy="170" r="104" fill="#FFD7EA"/>
  <circle cx="988" cy="160" r="128" fill="#D6F3FF"/>
  <rect x="130" y="230" width="940" height="520" rx="40" fill="#FFFDFE" fill-opacity="0.92"/>
  <rect x="180" y="290" width="380" height="320" rx="28" fill="#FFF1F7"/>
  <rect x="612" y="290" width="408" height="320" rx="28" fill="#F1FAFF"/>
  <circle cx="328" cy="388" r="74" fill="#F57CB2"/>
  <rect x="274" y="470" width="112" height="94" rx="24" fill="#24304A"/>
  <circle cx="792" cy="390" r="74" fill="#88D8FF"/>
  <rect x="734" y="468" width="116" height="96" rx="24" fill="#24304A"/>
  <path d="M390 392C421.48 330.685 482.858 288 554.206 288C625.554 288 686.932 330.685 718.412 392" stroke="#24304A" stroke-width="32" stroke-linecap="round"/>
  <rect x="450" y="378" width="210" height="188" rx="48" fill="#FFF6C7"/>
  <rect x="438" y="606" width="322" height="68" rx="34" fill="#24304A" fill-opacity="0.08"/>
  <circle cx="515" cy="470" r="18" fill="#24304A"/>
  <circle cx="595" cy="470" r="18" fill="#24304A"/>
  <path d="M520 526C543.333 542 566.667 542 590 526" stroke="#24304A" stroke-width="14" stroke-linecap="round"/>
  <defs>
    <linearGradient id="bg" x1="52" y1="36" x2="1118" y2="848" gradientUnits="userSpaceOnUse">
      <stop stop-color="#FFF8FC"/>
      <stop offset="0.52" stop-color="#FCFDFF"/>
      <stop offset="1" stop-color="#F3FBFF"/>
    </linearGradient>
  </defs>
</svg>
