<svg width="1200" height="900" viewBox="0 0 1200 900" fill="none" xmlns="http://www.w3.org/2000/svg">
  <rect width="1200" height="900" rx="48" fill="url(#bg)"/>
  <rect x="134" y="120" width="932" height="660" rx="44" fill="#FFFDFE" fill-opacity="0.94"/>
  <rect x="216" y="196" width="768" height="508" rx="36" fill="#FFF7FB"/>
  <circle cx="346" cy="334" r="74" fill="#F57CB2"/>
  <circle cx="520" cy="318" r="56" fill="#8EDB8C"/>
  <circle cx="670" cy="340" r="68" fill="#FFC971"/>
  <circle cx="842" cy="326" r="62" fill="#88D8FF"/>
  <rect x="282" y="448" width="142" height="112" rx="30" fill="#24304A"/>
  <rect x="454" y="448" width="142" height="112" rx="30" fill="#F57CB2"/>
  <rect x="626" y="448" width="142" height="112" rx="30" fill="#88D8FF"/>
  <rect x="798" y="448" width="90" height="112" rx="28" fill="#FFD87E"/>
  <path d="M346 248C346 214.863 372.863 188 406 188H794C827.137 188 854 214.863 854 248" stroke="#24304A" stroke-width="20" stroke-linecap="round"/>
  <defs>
    <linearGradient id="bg" x1="52" y1="36" x2="1118" y2="848" gradientUnits="userSpaceOnUse">
      <stop stop-color="#FFF8FC"/>
      <stop offset="0.48" stop-color="#FFFFFF"/>
      <stop offset="1" stop-color="#F0FBFF"/>
    </linearGradient>
  </defs>
</svg>
